<?xml version="1.0" encoding="UTF-8" standalone="no"?>
<svg
   viewBox="0 0 370 370"
   version="1.1"
   id="svg19"
   sodipodi:docname="01_clear_night.svg"
   inkscape:version="1.1.1 (3bf5ae0d25, 2021-09-20)"
   width="370"
   height="370"
   xmlns:inkscape="http://www.inkscape.org/namespaces/inkscape"
   xmlns:sodipodi="http://sodipodi.sourceforge.net/DTD/sodipodi-0.dtd"
   xmlns="http://www.w3.org/2000/svg"
   xmlns:svg="http://www.w3.org/2000/svg">
  <sodipodi:namedview
     id="namedview21"
     pagecolor="#ffffff"
     bordercolor="#666666"
     borderopacity="1.0"
     inkscape:pageshadow="2"
     inkscape:pageopacity="0.0"
     inkscape:pagecheckerboard="0"
     showgrid="false"
     inkscape:zoom="1.49"
     inkscape:cx="185.57047"
     inkscape:cy="184.89933"
     inkscape:window-width="3372"
     inkscape:window-height="1376"
     inkscape:window-x="68"
     inkscape:window-y="27"
     inkscape:window-maximized="1"
     inkscape:current-layer="svg19"
     fit-margin-top="0"
     fit-margin-left="0"
     fit-margin-right="0"
     fit-margin-bottom="0" />
  <defs
     id="defs4">
    <style
       id="style2">.cls-1{font-size:161.72px;stroke:#231815;stroke-miterlimit:10;font-family:DINAlternate-Bold, DIN Alternate;font-weight:700;}.cls-1,.cls-2{fill:#fff;}.cls-3{fill:#231815;}.cls-4{fill:#f4ec90;}</style>
  </defs>
  <title
     id="title6" />
  <rect
     style="fill:#297a9f;fill-opacity:1;stroke-width:5.07331;stroke-linecap:round;stroke-linejoin:round"
     id="rect1026"
     width="370"
     height="370"
     x="0"
     y="0" />
  <text
     class="cls-1"
     id="text8"
     x="-68.400002"
     y="-95.769997" />
  <path
     class="cls-2"
     d="m 276.66,124.62 v 0 a 3.19,3.19 0 0 1 0,6.16 v 0 a 44.32,44.32 0 0 0 -31.28,31.28 v 0 a 3.19,3.19 0 0 1 -6.16,0 v 0 a 44.32,44.32 0 0 0 -31.28,-31.28 v 0 a 3.19,3.19 0 0 1 0,-6.16 v 0 a 44.32,44.32 0 0 0 31.28,-31.28 v 0 a 3.19,3.19 0 0 1 6.16,0 v 0 a 44.32,44.32 0 0 0 31.28,31.28 z"
     id="path10" />
  <path
     class="cls-4"
     d="m 167.91,202.09 a 123.76,123.76 0 0 1 -26.4,-135.9 123.73,123.73 0 1 0 162.3,162.3 123.76,123.76 0 0 1 -135.9,-26.4 z"
     id="path14" />
  <path
     class="cls-3"
     d="m 173.21,196.79 c -33.59,-34 -42.83,-84.64 -24.47,-128.6 2.86,-6.84 -5.89,-10.69 -11,-8.47 A 131.16,131.16 0 0 0 67.38,227 c 11.92,30.67 35.16,56.58 64.88,71 a 131.16,131.16 0 0 0 178,-65.7 c 2.2,-5.09 -1.65,-13.86 -8.47,-11 -44,18.36 -94.59,9.12 -128.6,-24.47 -6.88,-6.79 -17.49,3.81 -10.61,10.61 37.45,37 94.45,48.68 143.2,28.33 l -8.47,-11 c -12.64,29.21 -36.37,53.08 -66.4,64.19 a 118.32,118.32 0 0 1 -82.67,-0.24 C 93.06,267.99 62.4,206.17 77.73,149.65 87.14,114.94 112.4,86.96 145.28,72.74 l -11,-8.47 c -20.35,48.74 -8.66,105.75 28.33,143.2 6.79,6.8 17.39,-3.81 10.6,-10.68 z"
     id="path16" />
  <path
     class="cls-3"
     d="m 274.67,131.85 c -3.33,-0.9 4.21,-8.58 -1.38,-7.91 a 10.45,10.45 0 0 0 -2,0.68 c -1.72,0.61 -3.42,1.32 -5.07,2.07 a 49.7,49.7 0 0 0 -9.93,6.15 51.17,51.17 0 0 0 -13.39,15.6 c -1.64,3 -3.86,6.84 -4.32,10.24 -0.35,2.53 -2.14,1.38 3.76,1.38 4.86,0 4.53,1 3.54,-2.06 a 58.81,58.81 0 0 0 -2.25,-5.78 50.43,50.43 0 0 0 -12,-16.73 53.52,53.52 0 0 0 -18.89,-11.12 10.82,10.82 0 0 0 -2.74,-0.83 v 4.15 q -2,5.08 0.69,4 c 1.37,0 3.4,-1.11 4.7,-1.63 a 50.73,50.73 0 0 0 10.38,-5.47 51.2,51.2 0 0 0 19.18,-24.48 c 0.49,-1.26 1.58,-3.32 1.57,-4.73 h -8.31 l 0.39,1.38 a 15.23,15.23 0 0 0 1.18,3.36 52.79,52.79 0 0 0 34.94,31.78 c 9.3,2.66 13.27,-11.81 4,-14.46 a 37.08,37.08 0 0 1 -21,-15 c -4.32,-6.59 -5,-18.48 -14.87,-18.87 -10.58,-0.41 -11.3,12.07 -15.76,18.87 A 37.24,37.24 0 0 1 207.33,117 c -4.12,1.38 -7.58,3.31 -8.83,7.84 a 10.73,10.73 0 0 0 5.2,12.16 c 3.45,1.9 7.43,2.51 10.91,4.5 a 37.86,37.86 0 0 1 10.21,8.53 36.14,36.14 0 0 1 5.86,9.89 c 1.78,4.51 2.41,8.91 7.44,11 a 10.65,10.65 0 0 0 12.16,-2.72 c 2.78,-3.21 3.23,-7.95 5.2,-11.66 4.73,-8.91 12.35,-14.94 21.79,-18.22 4.62,-1.61 8.37,-4 9.08,-9.27 a 10.71,10.71 0 0 0 -7.7,-11.75 c -9.33,-2.43 -13.31,12.04 -3.98,14.55 z"
     id="path12" />
</svg>
