<?xml version="1.0" encoding="UTF-8" standalone="no"?>
<svg
   viewBox="0 0 370 370"
   version="1.1"
   id="svg57"
   sodipodi:docname="02_cloudy.svg"
   inkscape:version="1.1.1 (3bf5ae0d25, 2021-09-20)"
   width="370"
   height="370"
   xmlns:inkscape="http://www.inkscape.org/namespaces/inkscape"
   xmlns:sodipodi="http://sodipodi.sourceforge.net/DTD/sodipodi-0.dtd"
   xmlns="http://www.w3.org/2000/svg"
   xmlns:svg="http://www.w3.org/2000/svg">
  <sodipodi:namedview
     id="namedview59"
     pagecolor="#ffffff"
     bordercolor="#666666"
     borderopacity="1.0"
     inkscape:pageshadow="2"
     inkscape:pageopacity="0.0"
     inkscape:pagecheckerboard="0"
     showgrid="false"
     inkscape:zoom="2.1071782"
     inkscape:cx="205.72536"
     inkscape:cy="226.60637"
     inkscape:window-width="3372"
     inkscape:window-height="1376"
     inkscape:window-x="68"
     inkscape:window-y="27"
     inkscape:window-maximized="1"
     inkscape:current-layer="svg57"
     fit-margin-top="0"
     fit-margin-left="0"
     fit-margin-right="0"
     fit-margin-bottom="0" />
  <defs
     id="defs4">
    <style
       id="style2">.cls-1{fill:#fff;}.cls-2{fill:#fff;}.cls-3{fill:none;stroke:#fff;stroke-miterlimit:10;}</style>
  </defs>
  <title
     id="title6" />
  <rect
     style="fill:#297a9f;fill-opacity:1;stroke-width:5.07331;stroke-linecap:round;stroke-linejoin:round"
     id="rect1026"
     width="370"
     height="370"
     x="0"
     y="0" />
  <path
     class="cls-2"
     d="m 322.18,232.95 a 49.45,49.45 0 0 1 11.75,10.59 66.46,66.46 0 0 1 -3.9,7.07 41.06,41.06 0 0 0 -10.94,-10.85 52.82,52.82 0 0 0 3.09,-6.81 z"
     id="path10" />
  <path
     class="cls-2"
     d="m 322.18,232.95 a 52.82,52.82 0 0 1 -3.09,6.81 41.54,41.54 0 0 0 -7.35,-3.95 7,7 0 0 0 -0.14,-4.23 q -0.69,-2.16 -1.53,-4.26 a 48.15,48.15 0 0 1 12.11,5.63 z"
     id="path14" />
  <path
     class="cls-2"
     d="m 311.6,231.58 a 7,7 0 0 1 0.14,4.23 39.79,39.79 0 0 0 -7.37,-2.24 57.91,57.91 0 0 0 -2.62,-6.87 7.51,7.51 0 0 1 4.61,-0.36 c 1.26,0.28 2.49,0.6 3.71,1 q 0.84,2.08 1.53,4.24 z"
     id="path16" />
  <path
     class="cls-2"
     d="m 304.37,233.57 a 39.79,39.79 0 0 1 7.37,2.24 c -1.79,5.95 -12.15,7.34 -14.6,-0.24 l -0.06,-0.18 a 8.31,8.31 0 0 1 4.67,-8.69 57.91,57.91 0 0 1 2.62,6.87 z"
     id="path18" />
  <path
     class="cls-2"
     d="m 297.14,235.57 c 2.45,7.58 12.81,6.19 14.6,0.24 a 41.54,41.54 0 0 1 7.35,3.95 41.06,41.06 0 0 1 10.91,10.85 66.46,66.46 0 0 0 3.9,-7.07 48.66,48.66 0 0 1 10.74,28.79 c 0.69,20.88 -12.64,39.87 -32.06,47.09 -8,3 -16.31,2.89 -24.7,2.89 h -98.43 c -10.75,0 -21,-1.36 -30.78,-6.29 A 57,57 0 0 1 130.39,282.3 h 7.88 a 49,49 0 0 1 -2.9,-15 c 0,-0.61 0,-1.22 0,-1.83 a 49.34,49.34 0 0 1 49.34,-49.34 50.14,50.14 0 0 1 15.21,2.4 58.44,58.44 0 0 1 101.88,8.17 8.31,8.31 0 0 0 -4.67,8.69 51.65,51.65 0 0 0 -39.17,-34.63 c -19.75,-3.87 -40.3,5.07 -51.57,21.55 -1.85,2.71 -5.12,4.47 -8.47,3.45 -17.43,-5.32 -36.93,0.31 -47.46,15.64 a 41.85,41.85 0 0 0 34.3,65.91 c 4.6,0.05 9.2,0 13.79,0 H 289 c 6.28,0 12.35,0.2 18.41,-1.91 13.86,-4.83 22.77,-18.55 22.28,-33.07 -0.53,-15.74 -12.29,-28.21 -27.3,-31.53 a 6.36,6.36 0 0 1 -5.29,-5.41 z"
     id="path20" />
  <path
     class="cls-2"
     d="m 292.18,153.6 c 2.94,9.23 -11.54,13.15 -14.46,4 0,-0.07 -0.05,-0.14 -0.07,-0.21 -0.66,-4.68 3.17,-10.33 9.3,-9 1.25,0.27 2.5,0.58 3.74,0.92 0.53,1.4 1.03,2.83 1.49,4.29 z"
     id="path22" />
  <path
     class="cls-2"
     d="m 283,162.82 a 6.32,6.32 0 0 1 -5.31,-5.45 c 0,0.07 0.05,0.14 0.07,0.21 2.92,9.17 17.4,5.25 14.46,-4 -0.46,-1.46 -1,-2.89 -1.49,-4.32 a 69.37,69.37 0 0 1 14.56,5.81 c 23.64,12.76 38,39.69 35,66.43 a 68.2,68.2 0 0 1 -6.31,22 49.45,49.45 0 0 0 -11.75,-10.59 54,54 0 0 0 3.24,-23.32 C 323.52,186.28 305.42,167.65 283,162.82 Z"
     id="path24" />
  <path
     class="cls-2"
     d="m 201.86,211.29 c -1.64,-0.5 -3.29,-0.92 -4.94,-1.28 a 66.9,66.9 0 0 1 63.59,-24 c 22.65,3.87 41.21,20.28 49.56,41.28 -1.22,-0.38 -2.45,-0.7 -3.71,-1 a 7.51,7.51 0 0 0 -4.61,0.36 58.44,58.44 0 0 0 -101.88,-8.17 47.38,47.38 0 0 0 -6.86,-1.68 l 0.38,-2.11 z"
     id="path26" />
  <path
     class="cls-2"
     d="m 201.86,211.29 -8.47,3.45 q 1.68,-2.46 3.53,-4.73 c 1.65,0.36 3.3,0.78 4.94,1.28 z"
     id="path28" />
  <path
     class="cls-2"
     d="m 138.27,282.3 h -7.88 a 52.52,52.52 0 0 1 -1.82,-7.92 58.16,58.16 0 0 1 -0.62,-7.08 h 7.42 a 49,49 0 0 0 2.9,15 z"
     id="path30" />
  <path
     class="cls-2"
     d="m 133.59,126.28 -8.47,3.44 q 1.67,-2.46 3.47,-4.82 c 1.68,0.4 3.34,0.86 5,1.38 z"
     id="path32" />
  <path
     class="cls-2"
     d="M 277.65,157.37 A 79.19,79.19 0 0 0 217.42,104 c -30.43,-5.9 -62.06,7.78 -79.35,33.28 -1.84,2.71 -5.14,4.49 -8.47,3.45 a 68.21,68.21 0 0 0 -21.73,-3.24 64.91,64.91 0 0 0 1.41,129.8 c 6.22,0.06 12.44,0 18.67,0 a 58.16,58.16 0 0 0 0.62,7.08 52.52,52.52 0 0 0 1.82,7.92 h -13.3 c -14.32,0 -28,-1.36 -41.3,-7.38 -23.68,-10.72 -41.31,-33.75 -45.31,-59.46 -4.11,-26.39 4.81,-53.69 24.66,-71.83 a 80.83,80.83 0 0 1 73.45,-18.73 q -1.8,2.36 -3.47,4.82 l 8.47,-3.44 c -1.66,-0.52 -3.32,-1 -5,-1.38 A 93,93 0 0 1 241.72,96.13 c 22.84,10.2 40.34,29.88 49,53.14 -1.24,-0.34 -2.49,-0.65 -3.74,-0.92 -6.16,-1.35 -9.98,4.34 -9.33,9.02 z"
     id="path34" />
  <path
     class="cls-2"
     d="M 128,267.3 A 56.91,56.91 0 0 1 146.41,223.48 57.63,57.63 0 0 1 196.92,210 q -1.84,2.26 -3.53,4.73 l -0.38,2.11 a 47.85,47.85 0 0 0 -8.35,-0.72 49.34,49.34 0 0 0 -49.34,49.34 c 0,0.61 0,1.22 0,1.83 H 128 Z"
     id="path36" />
  <path
     class="cls-3"
     d="m 128.59,124.9 a 80.83,80.83 0 0 0 -73.45,18.73 c -19.85,18.14 -28.77,45.44 -24.66,71.83 4,25.71 21.63,48.74 45.31,59.46 13.28,6 27,7.38 41.3,7.38 h 13.3"
     id="path38" />
  <path
     class="cls-3"
     d="m 128.59,124.9 c 1.68,0.4 3.34,0.86 5,1.38 l -8.47,3.44 q 1.67,-2.46 3.47,-4.82 z"
     id="path40" />
  <path
     class="cls-3"
     d="m 290.69,149.28 c -8.63,-23.26 -26.13,-42.94 -49,-53.14 a 93,93 0 0 0 -113.1,28.76"
     id="path42" />
  <path
     class="cls-3"
     d="m 128,267.3 c -6.23,0 -12.45,0.06 -18.67,0 a 64.91,64.91 0 0 1 -1.41,-129.8 68.21,68.21 0 0 1 21.73,3.24 c 3.33,1 6.63,-0.74 8.47,-3.45 17.29,-25.5 48.92,-39.18 79.35,-33.28 a 79.19,79.19 0 0 1 60.23,53.36"
     id="path44" />
  <path
     class="cls-3"
     d="m 277.65,157.37 a 6.32,6.32 0 0 0 5.31,5.45 c 22.46,4.83 40.56,23.46 42.46,46.81 a 54,54 0 0 1 -3.24,23.32"
     id="path46" />
  <path
     class="cls-3"
     d="m 333.93,243.54 a 68.2,68.2 0 0 0 6.31,-22 c 3,-26.74 -11.35,-53.67 -35,-66.43 a 69.37,69.37 0 0 0 -14.56,-5.81"
     id="path48" />
  <path
     class="cls-3"
     d="m 277.65,157.37 c 0,0.07 0.05,0.14 0.07,0.21 2.92,9.17 17.4,5.25 14.46,-4 -0.46,-1.46 -1,-2.89 -1.49,-4.32 -1.24,-0.34 -2.49,-0.65 -3.74,-0.92 -6.13,-1.34 -9.95,4.35 -9.3,9.03 z"
     id="path50" />
  <path
     class="cls-3"
     d="m 297.08,235.39 0.06,0.18 c 2.45,7.58 12.81,6.19 14.6,0.24 a 7,7 0 0 0 -0.14,-4.23 q -0.69,-2.16 -1.53,-4.26 c -8.35,-21 -26.91,-37.41 -49.56,-41.28 a 66.9,66.9 0 0 0 -63.59,24 q -1.84,2.26 -3.53,4.73 l 8.47,-3.45 c -1.64,-0.5 -3.29,-0.92 -4.94,-1.28 a 57.63,57.63 0 0 0 -50.56,13.47 56.91,56.91 0 0 0 -18.36,43.79 58.16,58.16 0 0 0 0.62,7.08 52.52,52.52 0 0 0 1.82,7.92 57,57 0 0 0 28.23,33.7 c 9.77,4.93 20,6.29 30.78,6.29 h 98.46 c 8.39,0 16.67,0.1 24.7,-2.89 19.42,-7.22 32.75,-26.21 32.06,-47.09 a 48.66,48.66 0 0 0 -10.74,-28.79 49.45,49.45 0 0 0 -11.75,-10.59 48.15,48.15 0 0 0 -12.11,-5.63 c -1.22,-0.38 -2.45,-0.7 -3.71,-1 a 7.51,7.51 0 0 0 -4.61,0.36 8.31,8.31 0 0 0 -4.67,8.69"
     id="path52" />
  <path
     class="cls-3"
     d="m 297.08,235.39 a 6.36,6.36 0 0 0 5.29,5.41 c 15,3.32 26.77,15.79 27.3,31.53 0.49,14.52 -8.42,28.24 -22.28,33.07 -6.06,2.11 -12.13,1.91 -18.41,1.91 H 198.5 c -4.59,0 -9.19,0.05 -13.79,0 a 41.85,41.85 0 0 1 -34.3,-65.91 c 10.53,-15.33 30,-21 47.46,-15.64 3.35,1 6.62,-0.74 8.47,-3.45 11.27,-16.48 31.82,-25.42 51.57,-21.55 a 51.65,51.65 0 0 1 39.17,34.63 z"
     id="path54" />
  <path
     class="cls-1"
     d="m 329.63,272.29 c 0.49,14.52 -8.42,28.24 -22.28,33.07 -6.06,2.11 -12.13,1.91 -18.41,1.91 h -90.48 c -4.59,0 -9.19,0.05 -13.79,0 a 41.85,41.85 0 0 1 -34.3,-65.91 c 10.53,-15.33 30,-21 47.46,-15.64 3.35,1 6.62,-0.74 8.47,-3.45 11.27,-16.48 31.82,-25.42 51.57,-21.55 a 51.65,51.65 0 0 1 39.17,34.63 6.36,6.36 0 0 0 5.29,5.41 c 15.01,3.32 26.77,15.79 27.3,31.53 z"
     id="path8"
     style="fill:#ffffff;fill-opacity:0.39734477" />
  <path
     class="cls-1"
     d="m 282.96,162.78 c 22.46,4.83 40.56,23.46 42.46,46.81 a 54,54 0 0 1 -3.24,23.32 48.15,48.15 0 0 0 -12.11,-5.63 c -8.35,-21 -26.91,-37.41 -49.56,-41.28 a 66.9,66.9 0 0 0 -63.59,24 57.63,57.63 0 0 0 -50.56,13.47 56.91,56.91 0 0 0 -18.4,43.79 c -6.23,0 -12.45,0.06 -18.67,0 a 64.91,64.91 0 0 1 -1.41,-129.8 68.21,68.21 0 0 1 21.73,3.24 c 3.33,1 6.63,-0.74 8.47,-3.45 17.29,-25.5 48.92,-39.179996 79.35,-33.28 a 79.19,79.19 0 0 1 60.23,53.36 6.32,6.32 0 0 0 5.3,5.45 z"
     id="path12"
     style="fill:#ffffff;fill-opacity:0.39734477" />
</svg>
