<?xml version="1.0" encoding="UTF-8" standalone="no"?>
<svg
   viewBox="0 0 370 370"
   version="1.1"
   id="svg19"
   sodipodi:docname="03_fog.svg"
   inkscape:version="1.1.1 (3bf5ae0d25, 2021-09-20)"
   width="370"
   height="370"
   xmlns:inkscape="http://www.inkscape.org/namespaces/inkscape"
   xmlns:sodipodi="http://sodipodi.sourceforge.net/DTD/sodipodi-0.dtd"
   xmlns="http://www.w3.org/2000/svg"
   xmlns:svg="http://www.w3.org/2000/svg">
  <sodipodi:namedview
     id="namedview21"
     pagecolor="#ffffff"
     bordercolor="#666666"
     borderopacity="1.0"
     inkscape:pageshadow="2"
     inkscape:pageopacity="0.0"
     inkscape:pagecheckerboard="0"
     showgrid="false"
     inkscape:zoom="2.98"
     inkscape:cx="210.57047"
     inkscape:cy="209.89933"
     inkscape:window-width="3372"
     inkscape:window-height="1376"
     inkscape:window-x="68"
     inkscape:window-y="27"
     inkscape:window-maximized="1"
     inkscape:current-layer="svg19"
     fit-margin-top="0"
     fit-margin-left="0"
     fit-margin-right="0"
     fit-margin-bottom="0" />
  <defs
     id="defs4">
    <style
       id="style2">.cls-1{fill:#dcdddd;}.cls-2{fill:#231815;}</style>
  </defs>
  <title
     id="title6" />
  <rect
     style="fill:#297a9f;fill-opacity:1;stroke-width:5.07331;stroke-linecap:round;stroke-linejoin:round"
     id="rect1026"
     width="370"
     height="370"
     x="0"
     y="0" />
  <path
     class="cls-1"
     d="M 260.57,248 A 51.75,51.75 0 0 0 270.91,145.54 73.71,73.71 0 0 0 139.1,126.54 62.24,62.24 0 1 0 119.92,248"
     id="path8"
     style="fill:#dcdddd;fill-opacity:0.60177034" />
  <path
     class="cls-2"
     d="m 260.57,255.54 a 59.9,59.9 0 0 0 58.79,-52.34 c 3.7,-30 -17,-58.47 -46.46,-64.86 l 5.24,5.24 c -9.07,-28.39 -33.17,-50.81 -62.81,-56 a 82.4,82.4 0 0 0 -82.71,35.25 l 8.47,-3.45 c -31.4,-9.69 -66.35,3.77 -82.26,32.77 -15.16,27.65 -9.62,63.37 13.66,84.79 a 70.91,70.91 0 0 0 47.42,18.61 c 9.66,0.11 9.66,-14.89 0,-15 -24.5,-0.27 -46.36,-16.6 -52.84,-40.4 a 55.22,55.22 0 0 1 25.59,-61.82 c 13.58,-7.83 29.54,-9.09 44.43,-4.49 3.34,1 6.63,-0.74 8.47,-3.45 14.64,-21.54 41.42,-33.14 67.15,-28.1 a 67.05,67.05 0 0 1 50.95,45.29 7.54,7.54 0 0 0 5.24,5.24 c 22.53,4.89 38.5,25.75 35.61,49 -2.74,22.09 -22,38.41 -44,38.7 -9.64,0.13 -9.67,15.13 0,15 z"
     id="path10"
     style="fill:#ffffff;fill-opacity:1" />
  <path
     class="cls-2"
     d="m 146.08,255.54 h 89.27 c 9.65,0 9.67,-15 0,-15 h -89.27 c -9.65,0 -9.67,15 0,15 z"
     id="path12"
     style="fill:#ffffff;fill-opacity:1" />
  <path
     class="cls-2"
     d="M 242.21,212.24 H 130.82 c -9.65,0 -9.67,15 0,15 h 111.39 c 9.65,0 9.67,-15 0,-15 z"
     id="path14"
     style="fill:#ffffff;fill-opacity:1" />
  <path
     class="cls-2"
     d="M 264,268.83 H 163.82 c -9.65,0 -9.67,15 0,15 H 264 c 9.65,0 9.67,-15 0,-15 z"
     id="path16"
     style="fill:#ffffff;fill-opacity:1" />
</svg>
