<?xml version="1.0" encoding="UTF-8" standalone="no"?>
<svg
   viewBox="0 0 370 370"
   version="1.1"
   id="svg111"
   sodipodi:docname="04_lightning.svg"
   inkscape:version="1.1.1 (3bf5ae0d25, 2021-09-20)"
   width="370"
   height="370"
   xmlns:inkscape="http://www.inkscape.org/namespaces/inkscape"
   xmlns:sodipodi="http://sodipodi.sourceforge.net/DTD/sodipodi-0.dtd"
   xmlns="http://www.w3.org/2000/svg"
   xmlns:svg="http://www.w3.org/2000/svg">
  <sodipodi:namedview
     id="namedview113"
     pagecolor="#ffffff"
     bordercolor="#666666"
     borderopacity="1.0"
     inkscape:pageshadow="2"
     inkscape:pageopacity="0.0"
     inkscape:pagecheckerboard="0"
     showgrid="false"
     inkscape:zoom="2.1071782"
     inkscape:cx="312.9778"
     inkscape:cy="194.81029"
     inkscape:window-width="3372"
     inkscape:window-height="1376"
     inkscape:window-x="68"
     inkscape:window-y="27"
     inkscape:window-maximized="1"
     inkscape:current-layer="svg111"
     fit-margin-top="0"
     fit-margin-left="0"
     fit-margin-right="0"
     fit-margin-bottom="0" />
  <defs
     id="defs4">
    <style
       id="style2">.cls-1{fill:#231815;}.cls-2{fill:#dcdddd;}.cls-3{fill:#faee00;}.cls-4{fill:none;stroke:#231815;stroke-miterlimit:10;}</style>
  </defs>
  <title
     id="title6" />
  <rect
     style="fill:#297a9f;fill-opacity:1;stroke-width:5.07331;stroke-linecap:round;stroke-linejoin:round"
     id="rect1026"
     width="370"
     height="370"
     x="0"
     y="0" />
  <path
     class="cls-2"
     d="m 239.38,195.59 h -18 l 12.06,-18 c 3.22,-4.82 -1.06,-11.29 -6.48,-11.29 -12.94,0 -25.95,-0.37 -38.9,-0.16 q -3.42,0.06 -6.82,0.16 c -4.63,0.17 -7.06,2.82 -9.08,6.11 -1,1.58 -1.85,3.31 -2.83,5 q -7.45,12.7 -14.89,25.42 l -10.82,18.45 a 7.22,7.22 0 0 0 -1,4 h -15.53 c 0,-3.72 -2.45,-7.44 -7.24,-7.5 -24.51,-0.27 -46.37,-16.59 -52.84,-40.39 a 54.59,54.59 0 0 1 3,-36.61 55.48,55.48 0 0 1 8.47,-13.42 54.24,54.24 0 0 1 14.15,-11.79 c 13.58,-7.83 29.54,-9.09 44.43,-4.49 3.34,1 6.63,-0.74 8.47,-3.45 14.65,-21.54 41.42,-33.14 67.16,-28.1 a 67,67 0 0 1 13.82,4.31 c 0.86,0.37 1.72,0.77 2.57,1.18 0.85,0.41 1.94,1 2.88,1.48 a 67.1,67.1 0 0 1 31.67,38.31 7.52,7.52 0 0 0 5.24,5.24 c 22.53,4.89 38.5,25.75 35.61,49 -2.74,22.1 -22,38.41 -44,38.7 -4.78,0.07 -7.19,3.79 -7.24,7.5 H 228 c 1.6,-1.6 3.19,-3.21 4.79,-4.82 l 11.93,-12 c 4.53,-4.64 1.18,-12.84 -5.34,-12.84 z"
     id="path38"
     style="fill:#dcdddd;fill-opacity:0.40362343" />
  <path
     class="cls-1"
     d="m 241.63,79.61 c 0,0.14 0,0.28 0,0.42 0,-0.14 0,-0.28 0,-0.42 z"
     id="path42" />
  <path
     class="cls-1"
     d="m 142.64,225.19068 h 45.43 c -0.0172,1.24559 -0.31099,2.53111 -0.86,3.64932 L 171.36,261 c 11.82,-11.93333 23.70599,-23.91932 35.53932,-35.83932 h 21.16 C 202.21932,251.22735 176.31667,277.35 150.47,303.41 c -1.38793,2.38309 -4.18688,3.55816 -6.86,2.88 -4.8,-0.8 -8.68,-6.62 -5.58,-11.4 l 30.71,-62.37 H 150.1 c -4.02164,-0.0603 -7.29596,-3.31058 -7.46,-7.32932 z"
     id="path24"
     sodipodi:nodetypes="cccccccccccc" />
  <path
     class="cls-1"
     d="m 143.62,221.27 10.82,-18.45 q 7.44,-12.72 14.89,-25.42 c 1,-1.68 1.86,-3.41 2.83,-5 2,-3.29 4.45,-5.94 9.08,-6.11 q 3.41,-0.1 6.82,-0.16 c 13,-0.21 26,0.16 38.9,0.16 5.42,0 9.7,6.47 6.48,11.29 l -12.06,18 h 18 c 6.52,0 9.87,8.2 5.3,12.8 l -11.93,12 c -1.6,1.61 -3.19,3.22 -4.79,4.82 h -21.12 l 14.54,-14.66 h -14 c -5.42,0 -9.71,-6.47 -6.48,-11.29 l 12.06,-18 h -28.53 l -21.24,36.25 h 17.55 a 7.3,7.3 0 0 1 7.33,7.7 h -45.43 a 7.22,7.22 0 0 1 0.98,-3.93 z"
     id="path26" />
  <path
     class="cls-3"
     d="m 212.92,181.3 -12.06,18 c -3.23,4.82 1.06,11.29 6.48,11.29 h 14 l -14.54,14.66 h -18.73 a 7.3,7.3 0 0 0 -7.33,-7.7 h -17.55 l 21.24,-36.25 z"
     id="path40" />
  <path
     class="cls-3"
     d="M 206.92389,225.10319 C 195.09723,237.02985 183.18667,249.09333 171.36,261 l 15.85,-32.19 c 0.54901,-1.11821 0.84275,-2.49122 0.86,-3.73681 z"
     id="path56"
     sodipodi:nodetypes="ccccc" />
  <path
     class="cls-4"
     d="m 228,225.25 c 1.6,-1.6 3.19,-3.21 4.79,-4.82 l 11.93,-12 c 4.57,-4.6 1.22,-12.8 -5.3,-12.8 h -18 l 12.06,-18 c 3.22,-4.82 -1.06,-11.29 -6.48,-11.29 -12.94,0 -25.95,-0.37 -38.9,-0.16 q -3.42,0.06 -6.82,0.16 c -4.63,0.17 -7.06,2.82 -9.08,6.11 -1,1.58 -1.85,3.31 -2.83,5 q -7.45,12.7 -14.89,25.42 l -10.82,18.45 a 7.22,7.22 0 0 0 -1,4 7.58,7.58 0 0 0 7.46,7.3 h 18.6 L 138,294.92 c -3.1,4.78 0.78,10.6 5.58,11.4 a 6.18,6.18 0 0 0 6.86,-2.88 Q 189.19,264.35 228,225.25 Z"
     id="path106" />
  <path
     class="cls-4"
     d="M 206.84,225.25 Q 189.1,243.14 171.36,261 l 15.85,-32.19 a 8.41,8.41 0 0 0 0.86,-3.59 7.3,7.3 0 0 0 -7.33,-7.7 h -17.55 l 21.24,-36.25 h 28.49 l -12.06,18 c -3.23,4.82 1.06,11.29 6.48,11.29 h 14 z"
     id="path108" />
  <path
     style="fill:none;fill-opacity:1;stroke:#ffffff;stroke-width:17;stroke-linecap:round;stroke-linejoin:round;stroke-miterlimit:4;stroke-dasharray:none;stroke-opacity:1"
     d="m 127.05956,225.23049 c -99.355453,1.71634 -87.166453,-143.314703 11.94,-121.42 49.24865,-59.933173 118.02416,-28.895553 131.8,18.95 67.38212,19.22177 42.38489,103.56903 -10.31,102.49"
     id="path933"
     sodipodi:nodetypes="cccc" />
</svg>
