<?xml version="1.0" encoding="UTF-8" standalone="no"?>
<svg
   viewBox="0 0 370 370"
   version="1.1"
   id="svg49"
   sodipodi:docname="05_lightning_rainy.svg"
   inkscape:version="1.1.1 (3bf5ae0d25, 2021-09-20)"
   inkscape:export-filename="/home/sergio/dev/nspanel/icons/nspanel_weather_icons/05_lightning_rainy.png"
   inkscape:export-xdpi="96"
   inkscape:export-ydpi="96"
   width="370"
   height="370"
   xmlns:inkscape="http://www.inkscape.org/namespaces/inkscape"
   xmlns:sodipodi="http://sodipodi.sourceforge.net/DTD/sodipodi-0.dtd"
   xmlns="http://www.w3.org/2000/svg"
   xmlns:svg="http://www.w3.org/2000/svg">
  <sodipodi:namedview
     id="namedview51"
     pagecolor="#ffffff"
     bordercolor="#666666"
     borderopacity="1.0"
     inkscape:pageshadow="2"
     inkscape:pageopacity="0.0"
     inkscape:pagecheckerboard="0"
     showgrid="false"
     inkscape:zoom="2.98"
     inkscape:cx="189.7651"
     inkscape:cy="183.72483"
     inkscape:window-width="3372"
     inkscape:window-height="1376"
     inkscape:window-x="68"
     inkscape:window-y="27"
     inkscape:window-maximized="1"
     inkscape:current-layer="svg49"
     fit-margin-top="0"
     fit-margin-left="0"
     fit-margin-right="0"
     fit-margin-bottom="0" />
  <defs
     id="defs4">
    <style
       id="style2">.cls-1{fill:#fff;}.cls-2{fill:#231815;}.cls-3{fill:#2ea7e0;}</style>
  </defs>
  <title
     id="title6" />
  <rect
     style="fill:#297a9f;fill-opacity:1;stroke-width:5.07331;stroke-linecap:round;stroke-linejoin:round"
     id="rect1026"
     width="370"
     height="370"
     x="0"
     y="0" />
  <path
     class="cls-2"
     d="m 233.6089,203.41148 h -18 l 12.06,-18 c 3.22,-4.82 -1.06,-11.29 -6.48,-11.29 -12.94,0 -25.95,-0.37 -38.9,-0.16 q -3.42,0.06 -6.82,0.16 c -4.63,0.17 -7.06,2.82 -9.08,6.11 -1,1.58 -1.85,3.31 -2.83,5 q -7.45,12.7 -14.89,25.42 l -10.82,18.45 a 7.22,7.22 0 0 0 -1,4 h -15.53 c 0,-3.72 -2.45,-7.44 -7.24,-7.5 -24.509999,-0.27 -46.369999,-16.59 -52.839999,-40.39 a 54.59,54.59 0 0 1 3,-36.61 55.48,55.48 0 0 1 8.47,-13.42 54.24,54.24 0 0 1 14.15,-11.79 c 13.579999,-7.83 29.539999,-9.09 44.429999,-4.49 3.34,1 6.63,-0.74 8.47,-3.45 14.65,-21.539999 41.42,-33.139999 67.16,-28.099999 a 67,67 0 0 1 13.82,4.31 c 0.86,0.37 1.72,0.77 2.57,1.18 0.85,0.41 1.94,1 2.88,1.48 a 67.1,67.1 0 0 1 31.67,38.309999 7.52,7.52 0 0 0 5.24,5.24 c 22.53,4.89 38.5,25.75 35.61,49 -2.74,22.1 -22,38.41 -44,38.7 -4.78,0.07 -7.19,3.79 -7.24,7.5 h -25.24 c 1.6,-1.6 3.19,-3.21 4.79,-4.82 l 11.93,-12 c 4.53,-4.64 1.18,-12.84 -5.34,-12.84 z"
     id="path38-3"
     style="fill:#dcdddd;fill-opacity:0.403623" />
  <path
     class="cls-3"
     d="M 163.67,243.21 156.29,224 c -1.45,-3.78 -5,-6.39 -9.23,-5.24 -3.61,1 -6.7,5.42 -5.24,9.23 l 7.37,19.2 c 1.45,3.78 5,6.39 9.23,5.24 3.61,-1 6.7,-5.42 5.24,-9.23 z"
     id="path26" />
  <path
     class="cls-3"
     d="m 185.16,200.33 -7.37,-19.2 c -1.45,-3.78 -5,-6.39 -9.23,-5.24 -3.61,1 -6.7,5.42 -5.24,9.23 l 7.37,19.2 c 1.45,3.78 5,6.39 9.23,5.24 3.61,-1 6.7,-5.42 5.24,-9.23 z"
     id="path18" />
  <path
     class="cls-3"
     d="M 201.63,243.21 194.26,224 c -1.45,-3.78 -5,-6.39 -9.23,-5.24 -3.61,1 -6.7,5.42 -5.24,9.23 l 7.37,19.2 c 1.45,3.78 5,6.39 9.23,5.24 3.61,-1 6.7,-5.42 5.24,-9.23 z"
     id="path30" />
  <g
     id="g1117"
     transform="translate(-420.66632,40.06733)">
    <path
       id="path24-9"
       class="cls-1"
       d="m 612.64358,133.87907 c -3.24844,-0.005 -6.49804,0.012 -9.74804,0.0645 -2.27334,0.04 -4.54698,0.0935 -6.82032,0.16015 -4.63,0.17001 -7.08007,2.81939 -9.08007,6.10938 -0.97001,1.59001 -1.83008,3.32 -2.83008,5 -4.96667,8.46667 -9.93063,16.93993 -14.89063,25.41992 l -10.81836,18.45118 c -0.69506,1.18951 -1.03527,2.55307 -0.98047,3.92969 h 45.42969 c 0.23119,-4.19928 -3.12451,-7.72487 -7.33008,-7.70118 h -17.55078 l 21.24024,-36.25 h 28.53125 l -12.06055,18 c -3.23,4.82 1.06047,11.29101 6.48047,11.29101 h 14 l -14.54102,14.66017 h 21.1211 c 1.6,-1.60001 3.18906,-3.21032 4.78906,-4.82032 l 11.92969,-12 c 4.57,-4.6 1.22117,-12.80078 -5.29883,-12.80078 h -18 l 12.05859,-18 c 3.22,-4.82 -1.05851,-11.28907 -6.47851,-11.28907 -9.675,0 -19.40704,-0.20914 -29.15235,-0.22461 z m 9.09057,59.09498 c -11.83333,11.92 -23.71783,23.90528 -35.53783,35.83862 l 15.84961,-32.16016 c 0.54877,-1.11821 0.84229,-2.40367 0.85937,-3.64916 l -45.42969,-0.0488 c 0.16325,4.01895 3.43719,7.31869 7.45899,7.37959 h 18.64062 l -30.70898,62.36914 c -3.1,4.78001 0.78008,10.60039 5.58008,11.40039 2.67312,0.67769 5.47177,-0.49771 6.85937,-2.88086 25.84667,-26.06 51.74862,-52.1821 77.58862,-78.24877 z"
       sodipodi:nodetypes="scccccccccccccscccccsccssscccccccccccc"
       style="fill:#000000;fill-opacity:1" />
    <path
       class="cls-4"
       d="m 642.85522,192.96414 c 1.6,-1.6 3.19,-3.20999 4.79,-4.82 l 11.93,-12 c 4.57,-4.59999 1.22,-12.79999 -5.3,-12.79999 h -18 l 12.06,-18 c 3.22,-4.82 -1.06,-11.29 -6.48,-11.29 -12.94,0 -25.95,-0.37 -38.9,-0.16 q -3.42,0.06 -6.82,0.16 c -4.63,0.17 -7.06,2.82 -9.08,6.11001 -1,1.58 -1.85,3.31 -2.83,5 q -7.45,12.69999 -14.89,25.41999 l -10.82,18.45 a 7.22,7.22 0 0 0 -1,4 7.58,7.58 0 0 0 7.46,7.29999 h 18.6 l -30.72,62.3 c -3.1,4.78 0.78,10.6 5.58,11.4 a 6.18,6.18 0 0 0 6.86,-2.88 q 38.75,-39.08999 77.56,-78.19 z"
       id="path106-2"
       style="stroke:#000000;stroke-opacity:1" />
    <path
       id="path40-8"
       class="cls-3"
       d="m 599.26468,149.11345 -21.23828,36.25 h 17.54883 c 4.19254,-0.0227 7.5426,3.48271 7.33008,7.66992 -0.0171,1.24549 -0.31061,2.47165 -0.85938,3.58985 l -15.84961,32.18946 c 11.82667,-11.90667 23.65185,-23.82333 29.54565,-29.78668 l 20.43287,-20.62349 h -14 c -5.42,0 -9.70852,-6.46906 -6.47852,-11.28905 l 12.0586,-18 z"
       sodipodi:nodetypes="ccccccccsccc"
       style="fill:#faee00;fill-opacity:1" />
    <path
       class="cls-4"
       d="m 621.67632,193.06266 q -17.74,17.89001 -35.48,35.75002 l 15.85,-32.19002 a 8.41,8.41 0 0 0 0.86,-3.58999 7.3,7.3 0 0 0 -7.33,-7.7 h -17.55 l 21.24,-36.25 h 28.49 l -12.06,18 c -3.23,4.82001 1.06,11.29001 6.48,11.29001 h 14 z"
       id="path108-9"
       style="fill:#ffff00;fill-opacity:1;stroke:#000000;stroke-opacity:1" />
  </g>
  <line
     class="cls-3"
     x1="139.97"
     x2="132.59"
     y1="202.32001"
     y2="183.12"
     id="line12" />
  <path
     class="cls-3"
     d="m 147.2,200.32 -7.37,-19.2 c -1.45,-3.78 -5,-6.39 -9.23,-5.24 -3.61,1 -6.7,5.42 -5.24,9.23 l 7.37,19.2 c 1.45,3.78 5,6.39 9.23,5.24 3.61,-1 6.7,-5.42 5.24,-9.23 z"
     id="path14" />
  <line
     class="cls-3"
     x1="177.92999"
     x2="170.56"
     y1="202.32001"
     y2="183.12"
     id="line16" />
  <line
     class="cls-3"
     x1="215.89001"
     x2="208.51999"
     y1="202.32001"
     y2="183.12"
     id="line20" />
  <path
     class="cls-3"
     d="m 223.12,200.33 -7.37,-19.2 c -1.45,-3.78 -5,-6.39 -9.23,-5.24 -3.61,1 -6.7,5.42 -5.24,9.23 l 7.37,19.2 c 1.45,3.78 5,6.39 9.23,5.24 3.61,-1 6.7,-5.42 5.24,-9.23 z"
     id="path22" />
  <line
     class="cls-3"
     x1="156.44"
     x2="149.06"
     y1="245.20001"
     y2="226"
     id="line24" />
  <line
     class="cls-3"
     x1="194.39999"
     x2="187.02"
     y1="245.20001"
     y2="226"
     id="line28" />
  <line
     class="cls-3"
     x1="232.35999"
     x2="224.98001"
     y1="245.20001"
     y2="226"
     id="line32" />
  <path
     class="cls-3"
     d="M 239.59,243.21 232.22,224 c -1.45,-3.78 -5,-6.39 -9.23,-5.24 -3.61,1 -6.7,5.42 -5.24,9.23 l 7.37,19.2 c 1.45,3.78 5,6.39 9.23,5.24 3.61,-1 6.7,-5.42 5.24,-9.23 z"
     id="path34" />
  <line
     class="cls-3"
     x1="172.89999"
     x2="165.53"
     y1="288.07999"
     y2="268.88"
     id="line36" />
  <path
     class="cls-3"
     d="m 180.14,286.09 -7.37,-19.2 c -1.45,-3.78 -5,-6.39 -9.23,-5.24 -3.61,1 -6.7,5.42 -5.24,9.23 l 7.37,19.2 c 1.45,3.78 5,6.39 9.23,5.24 3.61,-1 6.7,-5.42 5.24,-9.23 z"
     id="path38" />
  <line
     class="cls-3"
     x1="210.85999"
     x2="203.48999"
     y1="288.07999"
     y2="268.88"
     id="line40" />
  <path
     class="cls-3"
     d="m 218.1,286.09 -7.37,-19.2 c -1.45,-3.78 -5,-6.39 -9.23,-5.24 -3.61,1 -6.7,5.42 -5.24,9.23 l 7.37,19.2 c 1.45,3.78 5,6.39 9.23,5.24 3.61,-1 6.7,-5.42 5.24,-9.23 z"
     id="path42" />
  <line
     class="cls-3"
     x1="248.82999"
     x2="241.45001"
     y1="288.07999"
     y2="268.88"
     id="line44" />
  <path
     class="cls-3"
     d="m 256.06,286.09 -7.37,-19.2 c -1.45,-3.78 -5,-6.39 -9.23,-5.24 -3.61,1 -6.7,5.42 -5.24,9.23 l 7.37,19.2 c 1.45,3.78 5,6.39 9.23,5.24 3.61,-1 6.7,-5.42 5.24,-9.23 z"
     id="path46" />
  <path
     style="fill:none;fill-opacity:1;stroke:#ffffff;stroke-width:17;stroke-linecap:round;stroke-linejoin:round;stroke-miterlimit:4;stroke-dasharray:none;stroke-opacity:1"
     d="m 121.28846,233.05197 c -99.355452,1.71634 -87.166452,-143.314702 11.94,-121.42 49.24865,-59.933172 118.02416,-28.895552 131.8,18.95 67.38212,19.22177 42.38489,103.56903 -10.31,102.49"
     id="path933"
     sodipodi:nodetypes="cccc" />
</svg>
