<?xml version="1.0" encoding="UTF-8" standalone="no"?>
<svg
   viewBox="0 0 370 370"
   version="1.1"
   id="svg51"
   sodipodi:docname="06_partly_cloudy.svg"
   inkscape:version="1.1.1 (3bf5ae0d25, 2021-09-20)"
   width="370"
   height="370"
   xmlns:inkscape="http://www.inkscape.org/namespaces/inkscape"
   xmlns:sodipodi="http://sodipodi.sourceforge.net/DTD/sodipodi-0.dtd"
   xmlns="http://www.w3.org/2000/svg"
   xmlns:svg="http://www.w3.org/2000/svg">
  <sodipodi:namedview
     id="namedview53"
     pagecolor="#ffffff"
     bordercolor="#666666"
     borderopacity="1.0"
     inkscape:pageshadow="2"
     inkscape:pageopacity="0.0"
     inkscape:pagecheckerboard="0"
     showgrid="false"
     inkscape:zoom="1.49"
     inkscape:cx="185.57047"
     inkscape:cy="184.89933"
     inkscape:window-width="3372"
     inkscape:window-height="1376"
     inkscape:window-x="68"
     inkscape:window-y="27"
     inkscape:window-maximized="1"
     inkscape:current-layer="svg51"
     fit-margin-top="0"
     fit-margin-left="0"
     fit-margin-right="0"
     fit-margin-bottom="0" />
  <defs
     id="defs4">
    <style
       id="style2">.cls-1{fill:#f8b62d;}.cls-1,.cls-2{stroke:#f8b62d;stroke-miterlimit:10;}.cls-2,.cls-4{fill:#f8b62d;}.cls-3{fill:#fff;}</style>
  </defs>
  <title
     id="title6" />
  <rect
     style="fill:#297a9f;fill-opacity:1;stroke-width:5.07331;stroke-linecap:round;stroke-linejoin:round"
     id="rect1026"
     width="370"
     height="370"
     x="0"
     y="0" />
  <path
     class="cls-1"
     d="m 171.75,207.11 a 82.26,82.26 0 0 1 79.25,-30.47 76.19,76.19 0 0 1 10.36,2.59 82.65,82.65 0 0 0 -64.92,-68.08 C 163.11,104.4 128.17,120 110.64,149 a 83,83 0 0 0 -4.41,76.58 c 0.47,-0.46 0.94,-0.92 1.42,-1.37 a 70.52,70.52 0 0 1 64.1,-17.1 z"
     id="path8" />
  <path
     class="cls-2"
     d="M 106.23,225.58 A 83,83 0 0 1 110.64,149 c 17.54,-28.95 52.48,-44.6 85.76,-37.86 a 82.65,82.65 0 0 1 64.92,68.08 78.27,78.27 0 0 1 15.84,7.19 98,98 0 0 0 -63.86,-86.09 C 175.61,86.5 131.4,98.7 106.03,129.75 c -25,30.6 -29.26,74.3 -10,108.8 a 67.76,67.76 0 0 1 10.2,-12.97 z"
     id="path10" />
  <path
     class="cls-2"
     d="M 188.07,66.54 V 32.89 c 0,-9.65 -15,-9.67 -15,0 v 33.65 c 0,9.65 15,9.67 15,0 z m -7.5,-33.65 z"
     id="path12" />
  <path
     class="cls-2"
     d="m 111.66,87.05 c 4.83,8.36 17.79,0.81 13,-7.57 L 107.83,50.33 C 103,41.97 90.04,49.52 94.83,57.9 Z m 6.48,-3.79 -16.83,-29.15 z"
     id="path14" />
  <path
     class="cls-2"
     d="M 76.22,122.49 47.07,105.66 c -8.37,-4.84 -15.94,8.12 -7.57,13 l 29.15,16.83 c 8.35,4.79 15.94,-8.17 7.57,-13 z M 43.29,112.14 72.44,129 Z"
     id="path16" />
  <path
     class="cls-2"
     d="m 22.06,198.9 h 33.65 c 9.65,0 9.67,-15 0,-15 H 22.06 c -9.66,0 -9.67,15 0,15 z m 33.65,-7.5 z"
     id="path18" />
  <path
     class="cls-2"
     d="M 47.08,277.13 76.23,260.3 c 8.36,-4.83 0.81,-17.79 -7.57,-13 l -29.15,16.83 c -8.36,4.87 -0.82,17.87 7.57,13 z m 25.36,-23.3 -29.15,16.83 z"
     id="path20" />
  <path
     class="cls-2"
     d="m 305.42,198.9 h 33.65 c 9.65,0 9.67,-15 0,-15 h -33.65 c -9.65,0 -9.67,15 0,15 z m 0,-7.5 z"
     id="path22" />
  <path
     class="cls-2"
     d="m 292.48,135.44 29.15,-16.83 c 8.36,-4.83 0.81,-17.79 -7.57,-13 l -29.15,16.83 c -8.36,4.88 -0.81,17.84 7.57,13 z M 317.84,112.14 288.7,129 Z"
     id="path24" />
  <path
     class="cls-2"
     d="M 249.47,87.05 266.3,57.9 c 4.84,-8.37 -8.12,-15.94 -13,-7.57 l -16.83,29.15 c -4.79,8.38 8.17,15.94 13,7.57 z M 259.82,54.12 243,83.27 Z"
     id="path26" />
  <path
     class="cls-2"
     d="m 155.54,212.65 a 62.16,62.16 0 0 1 19.18,3 73.75,73.75 0 0 1 87.48,-28.16 82.09,82.09 0 0 0 -0.89,-8.29 76.19,76.19 0 0 0 -10.31,-2.56 82.26,82.26 0 0 0 -79.21,30.47 c 1.67,0.38 3.32,0.82 5,1.33 l -8.47,3.45 q 1.68,-2.46 3.5,-4.78 a 70.52,70.52 0 0 0 -64.11,17.1 c -0.48,0.45 -1,0.91 -1.42,1.38 a 78.51,78.51 0 0 0 3.63,7.06 62.05,62.05 0 0 1 45.62,-20 z"
     id="path30" />
  <path
     class="cls-2"
     d="m 176.72,208.44 c -1.65,-0.51 -3.3,-0.95 -5,-1.33 q -1.82,2.32 -3.5,4.78 z"
     id="path32" />
  <path
     class="cls-2"
     d="m 277.33,191.4 c 0.06,-8.29 -11,-9.46 -14.15,-3.5 a 73.42,73.42 0 0 1 13.39,7 7.44,7.44 0 0 0 0.76,-3.5 z"
     id="path38" />
  <path
     class="cls-2"
     d="m 277.22,195.28 c 0.06,-1.29 0.11,-2.59 0.12,-3.89 a 7.44,7.44 0 0 1 -0.77,3.46 z"
     id="path40" />
  <path
     class="cls-2"
     d="m 100.54,245.77 a 62.36,62.36 0 0 1 9.32,-13.13 78.51,78.51 0 0 1 -3.63,-7.06 67.76,67.76 0 0 0 -10.17,13 c 0.53,0.94 1.06,1.88 1.62,2.81 0.91,1.48 1.88,2.94 2.86,4.38 z"
     id="path42" />
  <path
     class="cls-2"
     d="m 262.21,187.51 1,0.38 c 3.17,-6 14.22,-4.79 14.15,3.5 0,-1.67 -0.08,-3.33 -0.18,-5 a 78.27,78.27 0 0 0 -15.84,-7.19 82.09,82.09 0 0 1 0.87,8.31 z"
     id="path44" />
  <g
     id="g2042"
     transform="translate(0.0895559,-0.03951282)">
    <path
       class="cls-3"
       d="m 340.36,282.5 c 1,19.06 -10.19,37.28 -28.18,44.17 -8.12,3.11 -16.25,2.95 -24.71,2.95 H 172 c -5.48,0 -11,0.05 -16.45,0 a 54.71,54.71 0 0 1 -50,-77.11 53.89,53.89 0 0 1 6,-10.38 c 0.78,-1.05 1.59,-2.06 2.44,-3 14.38,-16.69 37.56,-22.69 58.65,-16.18 3.34,1 6.63,-0.74 8.47,-3.45 14.64,-21.53 41.42,-33.13 67.15,-28.1 a 66.85,66.85 0 0 1 13.82,4.31 c 0.87,0.38 1.73,0.77 2.57,1.18 0.84,0.41 1.94,1 2.89,1.49 a 67,67 0 0 1 31.6,38.11 6.37,6.37 0 0 0 5.31,5.44 c 19.48,4.16 34.8,20.35 35.91,40.57 z"
       id="path46"
       style="fill:#ffffff;fill-opacity:0.400594" />
    <path
       style="fill:none;fill-opacity:1;stroke:#ffffff;stroke-width:17;stroke-linecap:round;stroke-linejoin:round;stroke-miterlimit:4;stroke-dasharray:none;stroke-opacity:1"
       d="M 162.79001,337.13 C 63.43455,338.84634 75.62355,193.81529 174.73,215.71 c 49.24865,-59.93317 118.02416,-28.89555 131.8,18.95 67.38212,19.22177 42.38489,103.56903 -10.31,102.49 z"
       id="path933-3"
       sodipodi:nodetypes="ccccc" />
  </g>
</svg>
