<?xml version="1.0" encoding="UTF-8" standalone="no"?>
<svg
   viewBox="0 0 370 370"
   version="1.1"
   id="svg25"
   sodipodi:docname="08_rainy.svg"
   inkscape:version="1.1.1 (3bf5ae0d25, 2021-09-20)"
   width="370"
   height="370"
   xmlns:inkscape="http://www.inkscape.org/namespaces/inkscape"
   xmlns:sodipodi="http://sodipodi.sourceforge.net/DTD/sodipodi-0.dtd"
   xmlns="http://www.w3.org/2000/svg"
   xmlns:svg="http://www.w3.org/2000/svg">
  <sodipodi:namedview
     id="namedview27"
     pagecolor="#ffffff"
     bordercolor="#666666"
     borderopacity="1.0"
     inkscape:pageshadow="2"
     inkscape:pageopacity="0.0"
     inkscape:pagecheckerboard="0"
     showgrid="false"
     inkscape:zoom="1.49"
     inkscape:cx="185.57047"
     inkscape:cy="184.89933"
     inkscape:window-width="3372"
     inkscape:window-height="1376"
     inkscape:window-x="68"
     inkscape:window-y="27"
     inkscape:window-maximized="1"
     inkscape:current-layer="svg25"
     fit-margin-top="0"
     fit-margin-left="0"
     fit-margin-right="0"
     fit-margin-bottom="0" />
  <defs
     id="defs4">
    <style
       id="style2">.cls-1{fill:#fff;}.cls-2{fill:#231815;}.cls-3{fill:#2ea7e0;}</style>
  </defs>
  <title
     id="title6" />
  <rect
     style="fill:#297a9f;fill-opacity:1;stroke-width:5.07331;stroke-linecap:round;stroke-linejoin:round"
     id="rect1026"
     width="370"
     height="370"
     x="0"
     y="0" />
  <path
     class="cls-1"
     d="M 260.57,258.16 A 51.75,51.75 0 0 0 270.91,155.7 73.71,73.71 0 0 0 139.1,136.7 62.24,62.24 0 1 0 119.92,258.14"
     id="path8"
     style="fill:#ffffff;fill-opacity:0.40382084" />
  <line
     class="cls-3"
     x1="154.97"
     x2="147.60001"
     y1="266.20001"
     y2="247"
     id="line12" />
  <path
     class="cls-3"
     d="M 162.2,264.21 154.83,245 c -1.45,-3.78 -5,-6.39 -9.23,-5.24 -3.61,1 -6.7,5.42 -5.24,9.23 l 7.37,19.2 c 1.45,3.78 5,6.39 9.23,5.24 3.61,-1 6.7,-5.42 5.24,-9.23 z"
     id="path14" />
  <line
     class="cls-3"
     x1="192.92999"
     x2="185.56"
     y1="266.20001"
     y2="247"
     id="line16" />
  <path
     class="cls-3"
     d="M 200.16,264.21 192.79,245 c -1.45,-3.78 -5,-6.39 -9.23,-5.24 -3.61,1 -6.7,5.42 -5.24,9.23 l 7.37,19.2 c 1.45,3.78 5,6.39 9.23,5.24 3.61,-1 6.7,-5.42 5.24,-9.23 z"
     id="path18" />
  <line
     class="cls-3"
     x1="230.89001"
     x2="223.51999"
     y1="266.20001"
     y2="247"
     id="line20" />
  <path
     class="cls-3"
     d="M 238.12,264.21 230.75,245 c -1.45,-3.78 -5,-6.39 -9.23,-5.24 -3.61,1 -6.7,5.42 -5.24,9.23 l 7.37,19.2 c 1.45,3.78 5,6.39 9.23,5.24 3.61,-1 6.7,-5.42 5.24,-9.23 z"
     id="path22" />
  <path
     style="fill:none;fill-opacity:1;stroke:#ffffff;stroke-width:17;stroke-linecap:round;stroke-linejoin:round;stroke-miterlimit:4;stroke-dasharray:none;stroke-opacity:1"
     d="m 127.07645,258.13688 c -99.355449,1.71634 -87.166449,-143.31471 11.94,-121.42 49.24865,-59.933178 118.02416,-28.89556 131.8,18.95 67.38212,19.22177 42.38489,103.56903 -10.31,102.49"
     id="path933"
     sodipodi:nodetypes="cccc" />
</svg>
