<?xml version="1.0" encoding="UTF-8" standalone="no"?>
<svg
   viewBox="0 0 370 370"
   version="1.1"
   id="svg15"
   sodipodi:docname="09_snowy.svg"
   inkscape:version="1.1.1 (3bf5ae0d25, 2021-09-20)"
   width="370"
   height="370"
   xmlns:inkscape="http://www.inkscape.org/namespaces/inkscape"
   xmlns:sodipodi="http://sodipodi.sourceforge.net/DTD/sodipodi-0.dtd"
   xmlns="http://www.w3.org/2000/svg"
   xmlns:svg="http://www.w3.org/2000/svg">
  <sodipodi:namedview
     id="namedview17"
     pagecolor="#ffffff"
     bordercolor="#666666"
     borderopacity="1.0"
     inkscape:pageshadow="2"
     inkscape:pageopacity="0.0"
     inkscape:pagecheckerboard="0"
     showgrid="false"
     inkscape:zoom="1.49"
     inkscape:cx="185.57047"
     inkscape:cy="184.89933"
     inkscape:window-width="3372"
     inkscape:window-height="1376"
     inkscape:window-x="68"
     inkscape:window-y="27"
     inkscape:window-maximized="1"
     inkscape:current-layer="svg15"
     fit-margin-top="0"
     fit-margin-left="0"
     fit-margin-right="0"
     fit-margin-bottom="0" />
  <defs
     id="defs4">
    <style
       id="style2">.cls-1{fill:#fff;}.cls-2{fill:#231815;}.cls-3{fill:#2ea7e0;}</style>
  </defs>
  <title
     id="title6" />
  <rect
     style="fill:#297a9f;fill-opacity:1;stroke-width:5.07331;stroke-linecap:round;stroke-linejoin:round"
     id="rect1026"
     width="370"
     height="370"
     x="0"
     y="0" />
  <path
     class="cls-1"
     d="m 260.57,231.69 a 51.75,51.75 0 0 0 10.34,-102.46 73.71,73.71 0 0 0 -131.81,-19 62.24,62.24 0 1 0 -19.18,121.44"
     id="path8"
     style="fill:#ffffff;fill-opacity:0.40407905" />
  <path
     class="cls-3"
     d="m 240.79,251.91 -4.64,-2.68 3.14,-1.83 c 8.34,-4.85 0.8,-17.82 -7.57,-13 l -8.45,4.91 c -0.66,0.38 -1.4,0.77 -2.18,1.18 l -3,-1.73 v -14.41 l 3,-1.74 c 0.76,0.4 1.51,0.79 2.18,1.18 l 8.45,4.91 c 8.36,4.86 15.92,-8.1 7.57,-13 l -3.14,-1.83 3,-1.72 1.87,-1.08 c 6.75,-3.9 3.12,-13.11 -2.95,-14 a 6.53,6.53 0 0 0 -1.56,0 7.66,7.66 0 0 0 -3.07,1 l -4.77,2.76 q 0,-1.8 0,-3.6 c 0,-0.23 0,-0.46 0,-0.68 -0.63,-7.9 -11.79,-8.67 -14.41,-2.28 a 7.67,7.67 0 0 0 -0.56,3 v 9.77 c 0,0.74 0,1.57 -0.07,2.42 v 0.1 l -3.84,2.22 -6.19,-3.57 c -1,-0.61 -2.24,-1.41 -3.51,-2.24 -0.64,-0.42 -1.31,-0.85 -2,-1.26 v -4.1 c 0.76,-0.48 1.5,-0.95 2.18,-1.34 l 8.47,-4.86 a 8.2,8.2 0 0 0 1.45,-1.05 c 5.91,-5.39 -1.18,-16.4 -9,-11.9 l -3.09,1.77 V 178 c 0,-9.65 -15,-9.67 -15,0 v 5.32 l -3.1,-1.81 c -7.22,-4.14 -13.83,4.89 -10.17,10.55 a 7.43,7.43 0 0 0 2.6,2.41 l 8.47,4.86 c 0.68,0.39 1.42,0.86 2.18,1.34 v 4.25 c -1.77,1.1 -3.45,2.28 -4.87,3.1 l -6.71,3.88 -3.94,-2.28 c 0,-0.88 -0.07,-1.73 -0.07,-2.52 v -9.77 c 0,-9.65 -15,-9.67 -15,0 q 0,1.8 0,3.6 l -4.77,-2.76 c -8.38,-4.83 -15.94,8.12 -7.57,13 l 4.84,2.8 -3.14,1.83 c -8.34,4.85 -0.8,17.82 7.57,13 l 8.45,-4.91 c 0.66,-0.38 1.4,-0.77 2.18,-1.18 l 3.2,1.85 v 14.23 l -3.2,1.85 c -0.76,-0.4 -1.51,-0.79 -2.18,-1.18 l -8.45,-4.91 c -8.36,-4.86 -15.92,8.1 -7.57,13 l 3.14,1.83 -4.64,2.68 c -8.36,4.83 -0.81,17.79 7.57,13 l 4.58,-2.64 q 0,1.8 0,3.6 c 0,9.65 15,9.67 15,0 v -9.77 c 0,-0.77 0,-1.63 0.07,-2.52 l 2.36,-1.36 7.87,4.54 c 1.53,0.88 3.36,2.19 5.3,3.38 v 2.39 c -0.76,0.48 -1.5,0.95 -2.18,1.34 l -8.47,4.86 c -8.37,4.8 -0.82,17.77 7.57,13 l 3.09,-1.77 v 5.55 c 0,9.65 15,9.67 15,0 v -5.55 l 3.09,1.77 c 8.39,4.81 16,-8.14 7.57,-13 l -8.47,-4.86 c -0.68,-0.39 -1.42,-0.86 -2.18,-1.34 v -2.31 c 1.85,-1.14 3.6,-2.38 5.07,-3.23 l 8.19,-4.73 2.27,1.31 c 0,0.88 0.07,1.73 0.07,2.52 v 9.77 c 0,9.65 15,9.67 15,0 q 0,-1.8 0,-3.6 l 4.58,2.64 c 8.29,4.65 15.85,-8.31 7.49,-13.14 z m -50.12,-5.08 -0.1,-0.06 -5.66,-3.27 -1.84,-1.06 -4.82,-2.78 v -14.34 l 0.74,-0.43 4.08,-2.36 3.42,-2 4.08,-2.36 0.1,-0.06 4.08,2.36 3.32,1.92 4.18,2.41 0.84,0.48 v 14.34 l -5,2.9 -1.74,1 z"
     id="path12" />
  <path
     style="fill:none;fill-opacity:1;stroke:#ffffff;stroke-width:17;stroke-linecap:round;stroke-linejoin:round;stroke-miterlimit:4;stroke-dasharray:none;stroke-opacity:1"
     d="m 127.07645,231.66688 c -99.355447,1.71634 -87.166457,-143.314709 11.94,-121.42 49.24865,-59.933179 118.02416,-28.895559 131.8,18.95 67.38212,19.22177 42.38489,103.56903 -10.31,102.49"
     id="path933"
     sodipodi:nodetypes="cccc" />
</svg>
