<?xml version="1.0" encoding="UTF-8" standalone="no"?>
<svg
   viewBox="0 0 370 370"
   version="1.1"
   id="svg67"
   sodipodi:docname="10_sunny.svg"
   inkscape:version="1.1.1 (3bf5ae0d25, 2021-09-20)"
   width="370"
   height="370"
   xmlns:inkscape="http://www.inkscape.org/namespaces/inkscape"
   xmlns:sodipodi="http://sodipodi.sourceforge.net/DTD/sodipodi-0.dtd"
   xmlns="http://www.w3.org/2000/svg"
   xmlns:svg="http://www.w3.org/2000/svg">
  <sodipodi:namedview
     id="namedview69"
     pagecolor="#ffffff"
     bordercolor="#666666"
     borderopacity="1.0"
     inkscape:pageshadow="2"
     inkscape:pageopacity="0.0"
     inkscape:pagecheckerboard="0"
     showgrid="false"
     inkscape:zoom="1.49"
     inkscape:cx="184.89933"
     inkscape:cy="184.89933"
     inkscape:window-width="3372"
     inkscape:window-height="1376"
     inkscape:window-x="68"
     inkscape:window-y="27"
     inkscape:window-maximized="1"
     inkscape:current-layer="svg67"
     fit-margin-top="0"
     fit-margin-left="0"
     fit-margin-right="0"
     fit-margin-bottom="0" />
  <defs
     id="defs4">
    <style
       id="style2">.cls-1{fill:#f8b62d;}.cls-2{fill:#f8b62d;}.cls-3{font-size:161.72px;fill:#fff;stroke:#f8b62d;stroke-miterlimit:10;font-family:DINAlternate-Bold, DIN Alternate;font-weight:700;}.cls-4{letter-spacing:-0.02em;}.cls-5{letter-spacing:-0.07em;}</style>
  </defs>
  <title
     id="title6" />
  <rect
     style="fill:#297a9f;fill-opacity:1;stroke-width:5.07331;stroke-linecap:round;stroke-linejoin:round"
     id="rect1026"
     width="370"
     height="370"
     x="0"
     y="0" />
  <g
     data-name="图层 1"
     id="图层_1"
     transform="translate(-65,-65)">
    <circle
       class="cls-1"
       cx="250"
       cy="250"
       r="84.800003"
       id="circle8" />
    <path
       class="cls-2"
       d="m 327.3,250 c -0.26,31.93 -20.27,61.69 -50.61,72.59 a 78.28,78.28 0 0 1 -86.62,-23.7 c -20.52,-24.83 -22.88,-61.14 -6.38,-88.66 16.5,-27.52 49.76,-42.55 81.4,-36.08 A 78.17,78.17 0 0 1 327.3,250 c 0.08,9.65 15.08,9.67 15,0 a 93.46,93.46 0 0 0 -61,-86.83 c -36.08,-13.29 -78.52,-1.52 -102.67,28.34 -24.15,29.86 -27.79,72.65 -7.9,105.83 20,33.39 59.57,50.62 97.68,43.11 C 311.16,332 342,293.16 342.3,250 c 0.08,-9.65 -14.92,-9.66 -15,0 z"
       id="path10" />
    <path
       class="cls-2"
       d="m 257.5,131.39 v -32 c 0,-9.65 -15,-9.67 -15,0 v 32 c 0,9.65 15,9.67 15,0 z"
       id="path12" />
    <line
       class="cls-2"
       x1="190.69"
       x2="174.71001"
       y1="147.28"
       y2="119.59"
       id="line14" />
    <path
       class="cls-2"
       d="m 197.17,143.49 -16,-27.69 c -4.83,-8.36 -17.79,-0.81 -13,7.57 l 16,27.69 c 4.83,8.36 17.79,0.81 13,-7.57 z"
       id="path16" />
    <line
       class="cls-2"
       x1="147.28"
       x2="119.59"
       y1="190.69"
       y2="174.71001"
       id="line18" />
    <path
       class="cls-2"
       d="m 151.06,184.22 -27.69,-16 c -8.38,-4.84 -15.94,8.12 -7.57,13 l 27.69,16 c 8.38,4.84 15.94,-8.12 7.57,-13 z"
       id="path20" />
    <line
       class="cls-2"
       x1="131.39"
       x2="99.419998"
       y1="250"
       y2="250"
       id="line22" />
    <path
       class="cls-2"
       d="m 131.39,242.5 h -32 c -9.65,0 -9.67,15 0,15 h 32 c 9.65,0 9.67,-15 0,-15 z"
       id="path24" />
    <line
       class="cls-2"
       x1="147.28"
       x2="119.59"
       y1="309.31"
       y2="325.29001"
       id="line26" />
    <path
       class="cls-2"
       d="m 143.49,302.83 -27.69,16 c -8.36,4.83 -0.81,17.79 7.57,13 l 27.69,-16 c 8.36,-4.83 0.81,-17.79 -7.57,-13 z"
       id="path28" />
    <line
       class="cls-2"
       x1="190.69"
       x2="174.71001"
       y1="352.72"
       y2="380.41"
       id="line30" />
    <path
       class="cls-2"
       d="m 184.22,348.94 -16,27.69 c -4.84,8.38 8.12,15.94 13,7.57 l 16,-27.69 c 4.84,-8.38 -8.12,-15.94 -13,-7.57 z"
       id="path32" />
    <line
       class="cls-2"
       x1="250"
       x2="250"
       y1="368.60999"
       y2="400.57999"
       id="line34" />
    <path
       class="cls-2"
       d="m 242.5,368.61 v 32 c 0,9.65 15,9.67 15,0 v -32 c 0,-9.65 -15,-9.67 -15,0 z"
       id="path36" />
    <line
       class="cls-2"
       x1="309.31"
       x2="325.29001"
       y1="352.72"
       y2="380.41"
       id="line38" />
    <path
       class="cls-2"
       d="m 302.83,356.51 16,27.69 c 4.83,8.36 17.79,0.81 13,-7.57 l -16,-27.69 c -4.83,-8.36 -17.79,-0.81 -13,7.57 z"
       id="path40" />
    <line
       class="cls-2"
       x1="352.72"
       x2="380.41"
       y1="309.31"
       y2="325.29001"
       id="line42" />
    <path
       class="cls-2"
       d="m 348.94,315.78 27.69,16 c 8.38,4.84 15.94,-8.12 7.57,-13 l -27.69,-16 c -8.38,-4.84 -15.94,8.12 -7.57,13 z"
       id="path44" />
    <line
       class="cls-2"
       x1="368.60999"
       x2="400.57999"
       y1="250"
       y2="250"
       id="line46" />
    <path
       class="cls-2"
       d="m 368.61,257.5 h 32 c 9.65,0 9.67,-15 0,-15 h -32 c -9.65,0 -9.67,15 0,15 z"
       id="path48" />
    <line
       class="cls-2"
       x1="352.72"
       x2="380.41"
       y1="190.69"
       y2="174.71001"
       id="line50" />
    <path
       class="cls-2"
       d="m 356.51,197.17 27.69,-16 c 8.36,-4.83 0.81,-17.79 -7.57,-13 l -27.69,16 c -8.36,4.83 -0.81,17.79 7.57,13 z"
       id="path52" />
    <line
       class="cls-2"
       x1="309.31"
       x2="325.29001"
       y1="147.28"
       y2="119.59"
       id="line54" />
    <path
       class="cls-2"
       d="m 315.78,151.06 16,-27.69 c 4.84,-8.38 -8.12,-15.94 -13,-7.57 l -16,27.69 c -4.84,8.38 8.12,15.94 13,7.57 z"
       id="path56" />
    <text
       class="cls-3"
       transform="translate(-3.4,-30.77)"
       id="text64"><tspan
         class="cls-4"
         id="tspan58" /><tspan
         class="cls-5"
         x="98.940002"
         y="0"
         id="tspan60" /><tspan
         x="185.56"
         y="0"
         id="tspan62" /></text>
  </g>
</svg>
